<?xml version="1.0" encoding="iso-8859-1"?>
<!-- Generator: Adobe Illustrator 19.0.0, SVG Export Plug-In . SVG Version: 6.00 Build 0)  -->
<svg version="1.1" id="Capa_1" xmlns="http://www.w3.org/2000/svg" xmlns:xlink="http://www.w3.org/1999/xlink" x="0px" y="0px"
	 viewBox="0 0 512 512" style="enable-background:new 0 0 512 512;" xml:space="preserve">
<g>
	<g>
		<path d="M315,76H45C20.186,76,0,96.186,0,121v270c0,24.814,20.186,45,45,45h270c24.814,0,45-20.186,45-45V121
			C360,96.186,339.814,76,315,76z M180,376c-66.167,0-120-53.833-120-120s53.833-120,120-120s120,53.833,120,120
			S246.167,376,180,376z"/>
	</g>
</g>
<g>
	<g>
		<path d="M180,226c-16.538,0-30,13.462-30,30c0,16.538,13.462,30,30,30c16.538,0,30-13.462,30-30C210,239.462,196.538,226,180,226z
			"/>
	</g>
</g>
<g>
	<g>
		<path d="M180,166c-49.629,0-90,40.371-90,90c0,49.629,40.371,90,90,90c49.629,0,90-40.371,90-90C270,206.371,229.629,166,180,166z
			 M180,316c-33.091,0-60-26.909-60-60s26.909-60,60-60s60,26.909,60,60S213.091,316,180,316z"/>
	</g>
</g>
<g>
	<g>
		<polygon points="390,146.845 390,365.155 512,413.148 512,98.852 		"/>
	</g>
</g>
<g>
</g>
<g>
</g>
<g>
</g>
<g>
</g>
<g>
</g>
<g>
</g>
<g>
</g>
<g>
</g>
<g>
</g>
<g>
</g>
<g>
</g>
<g>
</g>
<g>
</g>
<g>
</g>
<g>
</g>
</svg>
