<svg height="682pt" viewBox="-21 -50 682.66669 682" width="682pt" xmlns="http://www.w3.org/2000/svg"><path d="m0-1.582031v339.414062h640v-339.414062zm214.398438 247.609375h-107.585938v-147.746094h40.574219v112.371094h67.011719zm54.726562 0h-40.574219v-147.746094h40.574219zm99.671875 0h-33.710937l-54.933594-147.746094h42.859375l28.925781 96.761719 28.511719-96.761719h42.660156zm170.851563 0h-105.296876v-147.746094h103.421876v35.375h-62.847657v20.808594h53.6875v32.878906h-53.6875v23.308594h64.722657zm0 0"/><path d="m530 375.324219h110v70.972656h-110zm0 0"/><path d="m392.671875 483.796875h-145.34375l-14.65625 60.097656h-35.664063v37.5h245.984376v-37.5h-35.664063zm0 0"/><path d="m0 375.324219h492.5v70.972656h-492.5zm0 0"/></svg>